<svg width="139" height="44" viewBox="0 0 139 44" fill="none" xmlns="http://www.w3.org/2000/svg">
<g id="Group 3 1" clip-path="url(#clip0_3_68)">
<path id="Vector" fill-rule="evenodd" clip-rule="evenodd" d="M126.54 5.48438L138.265 18.0012C139.255 19.0582 138.308 20.6103 136.877 20.2755L119.932 16.3071C118.696 16.0175 117.908 15.3309 117.527 14.9245L109.307 6.14852C108.421 6.20652 107.622 6.64192 107.125 7.36862C107.426 7.92047 107.464 8.59444 107.112 9.1715C106.784 9.70918 106.215 9.99369 105.619 10.0413L103.433 16.5254C103.243 17.0892 102.564 17.3375 102.037 17.0349L99.1538 15.3769C98.6279 15.0746 98.5263 14.3772 98.9444 13.9446L103.754 8.96922C103.51 8.43822 103.495 7.81801 103.823 7.28036C104.185 6.68733 104.836 6.39091 105.5 6.40017C106.069 5.54054 106.896 4.93189 107.846 4.58934L105.802 2.4072C104.812 1.351 105.76 -0.201632 107.19 0.133354L124.135 4.10174C125.058 4.31768 125.901 4.80228 126.54 5.48438ZM116.113 16.1725C116.649 16.7447 117.751 17.7045 119.484 18.1106L128.294 20.1736L125.568 26.2521C124.688 27.693 120.994 27.2142 116.699 25.2806V27.2829H121.453V30.167H116.699V37.6993C116.699 38.6719 116.873 39.3732 117.223 39.8029C117.573 40.2327 118.144 40.4476 118.936 40.4476H121.453V43.2977H118.936C116.745 43.2977 115.184 42.8792 114.251 42.0423C113.342 41.1827 112.888 39.7351 112.888 37.6993V24.3989C112.888 23.856 112.783 23.4149 112.573 23.0756C112.568 23.068 112.564 23.0603 112.559 23.0526C107.796 20.0542 104.838 16.536 105.833 14.9052L110.017 9.66525L116.113 16.1725ZM5.4626 43.1592C6.62795 43.4893 8.04823 43.654 9.72343 43.654C16.5942 43.654 20.0295 41.2626 20.0295 36.4792C20.0295 34.9006 19.6654 33.64 18.937 32.6976C18.2087 31.755 17.2011 31.0364 15.9144 30.5416C14.6276 30.0232 12.9039 29.552 10.7431 29.1278C9.06791 28.7744 7.75689 28.3149 6.81004 27.7494C5.86319 27.1604 5.38976 26.3121 5.38976 25.2047C5.38976 23.9794 5.81464 23.0369 6.66437 22.3772C7.5141 21.6939 8.71587 21.3523 10.2697 21.3523C11.6535 21.3523 12.7946 21.5997 13.6929 22.0945C14.6155 22.5657 15.5502 23.3315 16.497 24.3918L19.3376 22.1298C18.4879 20.7868 17.3346 19.7736 15.878 19.0903C14.4455 18.4069 12.5883 18.0653 10.3061 18.0653C8.43669 18.0653 6.81004 18.3598 5.42618 18.9489C4.04232 19.5144 2.97408 20.3391 2.22146 21.4229C1.46883 22.4832 1.09252 23.732 1.09252 25.1694C1.09252 27.125 1.6752 28.6919 2.84055 29.8701C4.00591 31.0482 5.77823 31.8728 8.15748 32.3441C10.2454 32.7682 11.8113 33.157 12.8553 33.5105C13.9235 33.8403 14.6641 34.2409 15.0768 34.7121C15.5138 35.1598 15.7323 35.749 15.7323 36.4792C15.7323 37.7989 15.2346 38.7766 14.2392 39.4127C13.2438 40.0489 11.7264 40.367 9.68701 40.367C8.18177 40.367 6.91929 40.0843 5.89961 39.5188C4.90421 38.9533 3.90878 37.999 2.91339 36.6559L0 39.024C0.849736 40.1079 1.68733 40.9799 2.5128 41.6394C3.33826 42.2993 4.32153 42.8057 5.4626 43.1592ZM35.2908 28.3347C34.3585 27.3621 33.0183 26.8758 31.2703 26.8758C30.105 26.8758 29.0911 27.102 28.2287 27.5543C27.3897 28.0067 26.7138 28.6288 26.201 29.4205V22.6345C26.201 21.4357 26.0029 20.5082 25.6067 19.8523C25.2105 19.1737 24.4996 18.5742 23.4741 18.054L20.922 20.2255C21.4813 20.6327 21.8659 21.0059 22.0757 21.3452C22.2854 21.6845 22.3903 22.1369 22.3903 22.7024V43.2298H26.201V33.2206C26.5506 32.1801 27.0517 31.3432 27.7043 30.7098C28.3569 30.0765 29.1843 29.7598 30.1865 29.7598C31.0489 29.7598 31.7132 30.0312 32.1793 30.5741C32.6687 31.0944 32.9135 31.8182 32.9135 32.7456V43.2298H36.7243V32.3724C36.7243 30.6307 36.2464 29.2848 35.2908 28.3347ZM54.3357 40.3119C54.126 39.95 54.0211 39.4976 54.0211 38.9547V27.2829H50.2104V37.1564C49.8608 38.2422 49.3597 39.113 48.7071 39.769C48.0545 40.425 47.2387 40.753 46.2598 40.753C45.3275 40.753 44.605 40.4928 44.0923 39.9726C43.5795 39.4297 43.3231 38.6946 43.3231 37.7671V27.2829H39.5124V38.0725C39.5124 39.8595 40.0019 41.2393 40.9808 42.2119C41.9597 43.162 43.3464 43.637 45.1411 43.637C46.3764 43.637 47.4252 43.3769 48.2876 42.8566C49.1499 42.3364 49.8491 41.6238 50.3852 40.719C50.5483 41.3524 50.828 41.8953 51.2242 42.3477C51.6205 42.7775 52.2031 43.1846 52.9723 43.5691L55.5244 41.4316C54.9417 41.0244 54.5455 40.6512 54.3357 40.3119ZM58.2732 41.8387C58.6927 42.5173 59.4152 43.1167 60.4407 43.637L62.9929 41.4655C62.4335 41.0357 62.0373 40.6512 61.8042 40.3119C61.5944 39.9726 61.4896 39.5315 61.4896 38.9886V22.6345C61.4896 21.4357 61.2914 20.5082 60.8952 19.8523C60.499 19.1737 59.7881 18.5742 58.7626 18.054L56.2105 20.2255C56.7699 20.6327 57.1544 21.0059 57.3642 21.3452C57.574 21.6845 57.6788 22.1369 57.6788 22.7024V39.0565C57.6788 40.2327 57.877 41.1601 58.2732 41.8387ZM73.9589 40.4476C73.3529 40.6738 72.5954 40.7869 71.6864 40.7869C69.2159 40.7869 67.9806 39.6898 67.9806 37.4957V36.8171H75.0426C75.9982 36.8171 76.7207 36.704 77.2102 36.4778C77.6996 36.229 78.0376 35.8444 78.224 35.3243C78.4105 34.804 78.5037 34.0802 78.5037 33.1528C78.5037 31.1396 77.8744 29.6015 76.6159 28.5383C75.3573 27.4526 73.5976 26.9097 71.3368 26.9097C69.1226 26.9097 67.3746 27.4186 66.0927 28.4365C64.8341 29.4318 64.2048 30.8003 64.2048 32.542V37.4957C64.2048 39.5767 64.8108 41.1262 66.0228 42.1441C67.2348 43.1394 69.0993 43.637 71.6165 43.637C73.1548 43.637 74.4483 43.4334 75.4971 43.0263C76.5459 42.6191 77.42 42.0197 78.1192 41.228L75.8467 39.1922C75.2174 39.7803 74.5881 40.1988 73.9589 40.4476ZM68.8546 30.5741C69.4606 30.0086 70.2763 29.7259 71.3018 29.7259C72.3973 29.7259 73.2363 29.9973 73.819 30.5402C74.425 31.0604 74.728 31.8182 74.728 32.8135C74.728 33.3564 74.5998 33.7409 74.3434 33.9671C74.087 34.1707 73.6326 34.2725 72.9799 34.2725H67.9806V32.8135C67.9806 31.8861 68.2719 31.1396 68.8546 30.5741ZM93.4061 28.3347C92.4738 27.3621 91.122 26.8758 89.3506 26.8758C88.1387 26.8758 87.0898 27.1359 86.2042 27.6561C85.3185 28.1538 84.631 28.8324 84.1415 29.6919C83.9783 29.0812 83.6987 28.5609 83.3024 28.1312C82.9062 27.6788 82.3352 27.2603 81.5894 26.8758L79.0372 29.0473C79.5966 29.477 79.9812 29.8616 80.1909 30.2009C80.4007 30.5402 80.5056 30.9813 80.5056 31.5241V43.2298H84.3163V33.1528C84.6659 32.1349 85.167 31.3206 85.8196 30.7098C86.4722 30.0765 87.2996 29.7598 88.3018 29.7598C89.1642 29.7598 89.8284 30.0312 90.2946 30.5741C90.784 31.0944 91.0287 31.8182 91.0287 32.7456V43.2298H94.8395V32.3724C94.8395 30.6307 94.3617 29.2848 93.4061 28.3347ZM106.858 40.4476C106.252 40.6738 105.494 40.7869 104.585 40.7869C102.115 40.7869 100.879 39.6898 100.879 37.4957V36.8171H107.941C108.897 36.8171 109.619 36.704 110.109 36.4778C110.598 36.229 110.936 35.8444 111.123 35.3243C111.309 34.804 111.402 34.0802 111.402 33.1528C111.402 31.1396 110.773 29.6015 109.515 28.5383C108.256 27.4526 106.496 26.9097 104.235 26.9097C102.021 26.9097 100.273 27.4186 98.9914 28.4365C97.7328 29.4318 97.1035 30.8003 97.1035 32.542V37.4957C97.1035 39.5767 97.7095 41.1262 98.9215 42.1441C100.133 43.1394 101.998 43.637 104.515 43.637C106.053 43.637 107.347 43.4334 108.396 43.0263C109.445 42.6191 110.319 42.0197 111.018 41.228L108.745 39.1922C108.116 39.7803 107.487 40.1988 106.858 40.4476ZM101.753 30.5741C102.359 30.0086 103.175 29.7259 104.201 29.7259C105.296 29.7259 106.135 29.9973 106.718 30.5402C107.324 31.0604 107.627 31.8182 107.627 32.8135C107.627 33.3564 107.498 33.7409 107.242 33.9671C106.986 34.1707 106.531 34.2725 105.879 34.2725H100.879V32.8135C100.879 31.8861 101.171 31.1396 101.753 30.5741Z" fill="url(#paint0_linear_3_68)"/>
</g>
<defs>
<linearGradient id="paint0_linear_3_68" x1="-18.5" y1="0.110724" x2="144.826" y2="40.884" gradientUnits="userSpaceOnUse">
<stop stop-color="#03254E"/>
<stop offset="0.401718" stop-color="#7B6B91" stop-opacity="0.806229"/>
<stop offset="0.682292" stop-color="#C4A741" stop-opacity="0.75"/>
<stop offset="0.9999" stop-color="#FED601" stop-opacity="0.65"/>
<stop offset="1" stop-color="#FEBD08"/>
</linearGradient>
<clipPath id="clip0_3_68">
<rect width="138.75" height="43.8261" fill="white" transform="translate(0 0.0869446)"/>
</clipPath>
</defs>
</svg>
