<svg width="15" height="15" viewBox="0 0 15 15" fill="none" xmlns="http://www.w3.org/2000/svg">
<g id="book">
<path id="Vector" d="M14.255 4.00122C14.4783 4.3193 14.5285 4.67923 14.4057 5.08102L12.1038 12.6647C11.9978 13.0219 11.7843 13.3218 11.4635 13.5646C11.1426 13.8073 10.8008 13.9287 10.4381 13.9287H2.71208C2.28239 13.9287 1.86805 13.7794 1.46905 13.4809C1.07006 13.1823 0.792436 12.8154 0.636186 12.3801C0.502257 12.0062 0.496677 11.6519 0.619445 11.3171C0.619445 11.2947 0.627815 11.2194 0.644556 11.0911C0.661297 10.9627 0.672458 10.8595 0.678038 10.7814C0.683619 10.7367 0.675248 10.6767 0.652927 10.6014C0.630605 10.5261 0.622235 10.4716 0.627815 10.4382C0.638976 10.3768 0.661297 10.3182 0.694779 10.2624C0.728262 10.2066 0.7743 10.141 0.832893 10.0657C0.891487 9.99034 0.937525 9.92477 0.971007 9.86897C1.09936 9.65691 1.22491 9.40161 1.34768 9.10306C1.47045 8.80451 1.55415 8.54921 1.5988 8.33716C1.61554 8.28135 1.61693 8.19765 1.60298 8.08604C1.58903 7.97443 1.58764 7.89631 1.5988 7.85167C1.61554 7.79028 1.66297 7.71216 1.7411 7.61729C1.81922 7.52243 1.86665 7.45825 1.8834 7.42477C2.00058 7.22388 2.11777 6.96718 2.23496 6.65468C2.35215 6.34218 2.4219 6.09106 2.44422 5.90133C2.4498 5.85111 2.44283 5.76182 2.4233 5.63347C2.40376 5.50513 2.40516 5.427 2.42748 5.3991C2.4498 5.32656 2.51119 5.24146 2.61163 5.1438C2.71208 5.04614 2.77346 4.98336 2.79578 4.95546C2.90181 4.81037 3.02039 4.5746 3.15153 4.24815C3.28267 3.9217 3.3594 3.65245 3.38172 3.44039C3.3873 3.39575 3.37893 3.3246 3.35661 3.22695C3.33429 3.12929 3.32871 3.05535 3.33987 3.00513C3.35103 2.96048 3.37614 2.91026 3.4152 2.85446C3.45427 2.79865 3.50449 2.73448 3.56587 2.66193C3.62726 2.58939 3.67469 2.5308 3.70817 2.48615C3.75282 2.41919 3.79885 2.33409 3.84629 2.23085C3.89372 2.12762 3.93557 2.02996 3.97184 1.93788C4.00812 1.84581 4.05276 1.74536 4.10577 1.63654C4.15879 1.52773 4.21319 1.43844 4.269 1.36869C4.3248 1.29893 4.39874 1.23336 4.49082 1.17198C4.58289 1.1106 4.68334 1.07851 4.79216 1.07572C4.90097 1.07293 5.03351 1.08827 5.18976 1.12176L5.18139 1.14687C5.39344 1.09664 5.53574 1.07153 5.60828 1.07153H11.9783C12.3912 1.07153 12.7093 1.22778 12.9325 1.54028C13.1557 1.85278 13.2059 2.21551 13.0832 2.62845L10.7896 10.2122C10.5888 10.8762 10.3893 11.3045 10.1912 11.497C9.99305 11.6896 9.63451 11.7858 9.11554 11.7858H1.84154C1.69087 11.7858 1.58485 11.8277 1.52346 11.9114C1.46208 12.0007 1.45929 12.1206 1.51509 12.2713C1.64902 12.6619 2.05081 12.8572 2.72045 12.8572H10.4465C10.6083 12.8572 10.7645 12.814 10.9152 12.7275C11.0659 12.641 11.1635 12.5252 11.2082 12.3801L13.7193 4.11841C13.7584 3.99564 13.7723 3.8366 13.7612 3.64129C13.9732 3.72499 14.1379 3.84497 14.255 4.00122ZM5.3488 4.01796C5.32648 4.09051 5.33206 4.15329 5.36554 4.2063C5.39902 4.25931 5.45482 4.28582 5.53295 4.28582H10.6222C10.6948 4.28582 10.7659 4.25931 10.8357 4.2063C10.9054 4.15329 10.9515 4.09051 10.9738 4.01796L11.1496 3.48225C11.1719 3.4097 11.1663 3.34692 11.1328 3.29391C11.0994 3.2409 11.0436 3.21439 10.9654 3.21439H5.87614C5.8036 3.21439 5.73245 3.2409 5.66269 3.29391C5.59294 3.34692 5.5469 3.4097 5.52458 3.48225L5.3488 4.01796ZM4.65404 6.16082C4.63172 6.23336 4.6373 6.29614 4.67078 6.34916C4.70427 6.40217 4.76007 6.42868 4.83819 6.42868H9.92748C10 6.42868 10.0712 6.40217 10.1409 6.34916C10.2107 6.29614 10.2567 6.23336 10.279 6.16082L10.4548 5.6251C10.4771 5.55256 10.4716 5.48978 10.4381 5.43677C10.4046 5.38375 10.3488 5.35725 10.2707 5.35725H5.18139C5.10884 5.35725 5.03769 5.38375 4.96794 5.43677C4.89818 5.48978 4.85215 5.55256 4.82982 5.6251L4.65404 6.16082Z" fill="black"/>
</g>
</svg>
