<svg width="50" height="50" viewBox="0 0 50 50" fill="none" xmlns="http://www.w3.org/2000/svg">
<g id="books icon">
<path id="Vector" d="M46.8438 38.7634H3.15604C2.34782 38.7634 1.69263 39.4186 1.69263 40.2268V40.2273C1.69263 41.0355 2.34782 41.6907 3.15604 41.6907H46.8438C47.6521 41.6907 48.3073 41.0355 48.3073 40.2273V40.2268C48.3073 39.4186 47.6521 38.7634 46.8438 38.7634Z" fill="#4D4C78"/>
<path id="Vector_2" d="M46.8439 38.7634H3.77808C3.77564 38.7951 3.77564 38.8268 3.77564 38.8585C3.77532 39.0509 3.81293 39.2415 3.88633 39.4193C3.95973 39.5972 4.06748 39.7588 4.2034 39.8949C4.33932 40.0311 4.50075 40.1391 4.67846 40.2128C4.85617 40.2865 5.04667 40.3244 5.23905 40.3244H48.3025C48.3049 40.2903 48.3073 40.2585 48.3073 40.2268C48.3073 40.0347 48.2695 39.8444 48.1959 39.6668C48.1224 39.4893 48.0146 39.3279 47.8787 39.192C47.7428 39.0562 47.5815 38.9484 47.404 38.8748C47.2264 38.8013 47.0361 38.7634 46.8439 38.7634Z" fill="#323150"/>
<path id="Vector_3" d="M39.2904 9.61629L32.7258 10.7738L37.631 38.5925L44.1956 37.4349L39.2904 9.61629Z" fill="#67BAEB"/>
<path id="Vector_4" d="M12.9927 8.30975H5.78296V38.8598H12.9927V8.30975Z" fill="#67BAEB"/>
<path id="Vector_5" d="M32.0196 8.30975H24.8098V38.8598H32.0196V8.30975Z" fill="#F44533"/>
<path id="Vector_6" d="M24.8098 38.8585H32.0196V8.30975H30.8001V37.4732H24.8098V38.8585Z" fill="#DE3226"/>
<path id="Vector_7" d="M18.9097 10.4097H12.9927V38.859H18.9097V10.4097Z" fill="#F4C23F"/>
<path id="Vector_8" d="M17.3634 10.4097V33.439C17.3634 35.8512 15.4073 37.8097 12.9927 37.8097V38.8585H18.9097V10.4097H17.3634Z" fill="#F4A93F"/>
<path id="Vector_9" d="M24.8098 12.2878H18.8927V38.86H24.8098V12.2878Z" fill="#C8C2E9"/>
<path id="Vector_10" d="M23.6756 12.2878V33.139C23.6756 35.7805 21.5342 37.9219 18.8927 37.9219V38.8585H24.8098V12.2878H23.6756Z" fill="#B9B1E0"/>
<path id="Vector_11" d="M12.9927 13.1268H5.78296V15.251H12.9927V13.1268Z" fill="#4D4C78"/>
<path id="Vector_12" d="M12.9927 31.9195H5.78296V34.0436H12.9927V31.9195Z" fill="#4D4C78"/>
<path id="Vector_13" d="M16.556 14.6439H15.0756V35.3061H16.556V14.6439Z" fill="#F4A93F"/>
<path id="Vector_14" d="M23.1878 16.5586H20.5147C20.3853 16.5586 20.2612 16.5072 20.1697 16.4157C20.0783 16.3242 20.0269 16.2001 20.0269 16.0708C20.0269 15.9414 20.0783 15.8173 20.1697 15.7258C20.2612 15.6343 20.3853 15.5829 20.5147 15.5829H23.1878C23.3172 15.5829 23.4413 15.6343 23.5328 15.7258C23.6242 15.8173 23.6756 15.9414 23.6756 16.0708C23.6756 16.2001 23.6242 16.3242 23.5328 16.4157C23.4413 16.5072 23.3172 16.5586 23.1878 16.5586Z" fill="#4D4C78"/>
<path id="Vector_15" d="M23.1878 19.0293H20.5147C20.3853 19.0293 20.2612 18.9779 20.1697 18.8864C20.0783 18.7949 20.0269 18.6708 20.0269 18.5415C20.0269 18.4121 20.0783 18.288 20.1697 18.1965C20.2612 18.105 20.3853 18.0536 20.5147 18.0536H23.1878C23.3172 18.0536 23.4413 18.105 23.5328 18.1965C23.6242 18.288 23.6756 18.4121 23.6756 18.5415C23.6756 18.6708 23.6242 18.7949 23.5328 18.8864C23.4413 18.9779 23.3172 19.0293 23.1878 19.0293Z" fill="#4D4C78"/>
<path id="Vector_16" d="M23.1878 21.4976H20.5147C20.3853 21.4976 20.2612 21.4462 20.1697 21.3547C20.0783 21.2632 20.0269 21.1392 20.0269 21.0098C20.0269 20.8804 20.0783 20.7563 20.1697 20.6648C20.2612 20.5734 20.3853 20.522 20.5147 20.522H23.1878C23.3172 20.522 23.4413 20.5734 23.5328 20.6648C23.6242 20.7563 23.6756 20.8804 23.6756 21.0098C23.6756 21.1392 23.6242 21.2632 23.5328 21.3547C23.4413 21.4462 23.3172 21.4976 23.1878 21.4976Z" fill="#4D4C78"/>
<path id="Vector_17" d="M22.7293 36.3073H20.9732C20.8438 36.3073 20.7197 36.2559 20.6282 36.1645C20.5367 36.073 20.4854 35.9489 20.4854 35.8195C20.4854 35.6902 20.5367 35.5661 20.6282 35.4746C20.7197 35.3831 20.8438 35.3317 20.9732 35.3317H22.7293C22.8586 35.3317 22.9827 35.3831 23.0742 35.4746C23.1657 35.5661 23.2171 35.6902 23.2171 35.8195C23.2171 35.9489 23.1657 36.073 23.0742 36.1645C22.9827 36.2559 22.8586 36.3073 22.7293 36.3073Z" fill="#4D4C78"/>
<path id="Vector_18" d="M27.0805 34.1878C26.9513 34.1871 26.8276 34.1355 26.7362 34.0442C26.6449 33.9529 26.5933 33.8292 26.5927 33.7V13.4707C26.5927 13.3413 26.644 13.2173 26.7355 13.1258C26.827 13.0343 26.9511 12.9829 27.0805 12.9829C27.2098 12.9829 27.3339 13.0343 27.4254 13.1258C27.5169 13.2173 27.5683 13.3413 27.5683 13.4707V33.7C27.5683 33.764 27.5556 33.8275 27.5311 33.8867C27.5066 33.9458 27.4707 33.9996 27.4254 34.0449C27.3801 34.0902 27.3263 34.1261 27.2671 34.1507C27.2079 34.1752 27.1445 34.1878 27.0805 34.1878Z" fill="#B11A31"/>
<path id="Vector_19" d="M29.7463 34.1878C29.617 34.1878 29.4929 34.1364 29.4014 34.0449C29.3099 33.9534 29.2585 33.8294 29.2585 33.7V13.4707C29.2585 13.3413 29.3099 13.2173 29.4014 13.1258C29.4929 13.0343 29.617 12.9829 29.7463 12.9829C29.8757 12.9829 29.9998 13.0343 30.0913 13.1258C30.1828 13.2173 30.2342 13.3413 30.2342 13.4707V33.7C30.2335 33.8292 30.1819 33.9529 30.0906 34.0442C29.9992 34.1355 29.8755 34.1871 29.7463 34.1878Z" fill="#B11A31"/>
<path id="Vector_20" d="M43.5634 33.7147L37 34.8781L37.1707 35.8391L43.7341 34.6756L43.5634 33.7147Z" fill="#4D4C78"/>
<path id="Vector_21" d="M39.7703 12.3399L33.2057 13.4974L33.3751 14.4582L39.9397 13.3006L39.7703 12.3399Z" fill="#4D4C78"/>
<path id="Vector_22" d="M41.0269 19.3805L40.8561 18.4219L34.2927 19.5829L34.4635 20.5439L41.0269 19.3805Z" fill="#4D4C78"/>
<path id="Vector_23" d="M42.6537 28.5658L42.483 27.6049L35.9171 28.7683L36.0878 29.7292L42.6537 28.5658Z" fill="#4D4C78"/>
<path id="Vector_24" opacity="0.1" d="M10.9098 32.178V8.30975H12.9927V38.8585H5.78296V37.3049C8.61467 37.3049 10.9098 35.0098 10.9098 32.178Z" fill="#323150"/>
<path id="Vector_25" opacity="0.1" d="M39.2927 9.58539L37.622 9.88295L41.4927 31.7561C41.9513 34.3415 40.2269 36.8098 37.6391 37.2659L37.4293 37.3049L37.6513 38.5634L44.2171 37.4025L39.2927 9.58539Z" fill="#323150"/>
<path id="Vector_26" d="M7.36345 18.3683C7.36345 17.9319 7.00964 17.5781 6.5732 17.5781C6.13676 17.5781 5.78296 17.9319 5.78296 18.3683V29.5868C5.78296 30.0233 6.13676 30.3771 6.5732 30.3771C7.00964 30.3771 7.36345 30.0233 7.36345 29.5868V18.3683Z" fill="#83D0FB"/>
<g id="Group" opacity="0.2">
<path id="Vector_27" d="M35.6911 16.9998C35.6066 16.5209 35.15 16.2011 34.6711 16.2856C34.1922 16.37 33.8724 16.8267 33.9569 17.3056L36.1249 29.601C36.2093 30.0799 36.666 30.3997 37.1449 30.3152C37.6238 30.2308 37.9435 29.7741 37.8591 29.2952L35.6911 16.9998Z" fill="white"/>
<path id="Vector_28" d="M37.0048 30.3147C36.7949 30.3144 36.5918 30.2401 36.4313 30.105C36.2707 29.9698 36.1629 29.7824 36.1267 29.5756L33.9511 17.2805C33.91 17.0477 33.9629 16.808 34.0982 16.6141C34.2336 16.4203 34.4403 16.288 34.6731 16.2464C34.9066 16.2052 35.1469 16.2584 35.3412 16.3942C35.5355 16.53 35.668 16.7374 35.7097 16.9708L37.8853 29.2659C37.9264 29.4987 37.8735 29.7384 37.7382 29.9323C37.6028 30.1262 37.3961 30.2584 37.1633 30.3C37.111 30.3097 37.058 30.3146 37.0048 30.3147ZM34.8292 16.2586C34.7784 16.2587 34.7278 16.2636 34.678 16.2732C34.5659 16.2929 34.4588 16.3346 34.3628 16.3958C34.2669 16.4571 34.184 16.5367 34.119 16.6301C34.0539 16.7235 34.008 16.8288 33.9838 16.94C33.9596 17.0512 33.9576 17.1661 33.978 17.2781L36.1536 29.5708C36.194 29.797 36.3225 29.998 36.5108 30.1296C36.6992 30.2613 36.9321 30.3129 37.1585 30.2732C37.2703 30.2535 37.3772 30.2119 37.4729 30.1508C37.5687 30.0897 37.6514 30.0104 37.7164 29.9172C37.7815 29.8241 37.8275 29.7191 37.8519 29.6081C37.8762 29.4972 37.8785 29.3826 37.8584 29.2708L35.6828 16.9756C35.6473 16.7749 35.5424 16.5931 35.3863 16.462C35.2302 16.3309 35.033 16.2589 34.8292 16.2586Z" fill="#231F20"/>
</g>
<path id="Vector_29" d="M7.36345 9.83413C7.36345 9.39769 7.00964 9.04388 6.5732 9.04388C6.13676 9.04388 5.78296 9.39769 5.78296 9.83413V11.5207C5.78296 11.9572 6.13676 12.311 6.5732 12.311C7.00964 12.311 7.36345 11.9572 7.36345 11.5207V9.83413Z" fill="#83D0FB"/>
<path id="Vector_30" d="M14.178 11.4927C14.178 11.1654 13.9127 10.9 13.5854 10.9C13.258 10.9 12.9927 11.1654 12.9927 11.4927V24.612C12.9927 24.9393 13.258 25.2047 13.5854 25.2047C13.9127 25.2047 14.178 24.9393 14.178 24.612V11.4927Z" fill="#FAD564"/>
<path id="Vector_31" d="M19.461 23.1122H19.4586C19.146 23.1122 18.8927 23.3655 18.8927 23.678V30.6368C18.8927 30.9493 19.146 31.2027 19.4586 31.2027H19.461C19.7735 31.2027 20.0268 30.9493 20.0268 30.6368V23.678C20.0268 23.3655 19.7735 23.1122 19.461 23.1122Z" fill="#DFDAFD"/>
<path id="Vector_32" d="M21.3829 12.2878H19.361C19.1024 12.2878 18.8927 12.4974 18.8927 12.7561V13.2129C18.8927 13.4715 19.1024 13.6812 19.361 13.6812H21.3829C21.6416 13.6812 21.8512 13.4715 21.8512 13.2129V12.7561C21.8512 12.4974 21.6416 12.2878 21.3829 12.2878Z" fill="#DFDAFD"/>
<path id="Vector_33" d="M25.2854 12.2878H25.283C25.0217 12.2878 24.8098 12.4996 24.8098 12.761V30.2331C24.8098 30.4945 25.0217 30.7063 25.283 30.7063H25.2854C25.5467 30.7063 25.7586 30.4945 25.7586 30.2331V12.761C25.7586 12.4996 25.5467 12.2878 25.2854 12.2878Z" fill="#F46253"/>
</g>
</svg>
