<svg width="50" height="50" viewBox="0 0 50 50" fill="none" xmlns="http://www.w3.org/2000/svg">
<g id="certificate icon">
<path id="Vector" d="M47.3145 7.91016H2.68555C1.60687 7.91016 0.732422 8.7846 0.732422 9.86328V40.1367C0.732422 41.2154 1.60687 42.0898 2.68555 42.0898H47.3145C48.3931 42.0898 49.2676 41.2154 49.2676 40.1367V9.86328C49.2676 8.7846 48.3931 7.91016 47.3145 7.91016Z" fill="#BDDBFF"/>
<path id="Vector_2" d="M47.3145 42.8223H2.68555C1.97361 42.8212 1.29113 42.538 0.78772 42.0345C0.284306 41.5311 0.00103329 40.8487 0 40.1367L0 9.86328C0.00103329 9.15135 0.284306 8.46887 0.78772 7.96545C1.29113 7.46204 1.97361 7.17877 2.68555 7.17773H47.3145C48.0264 7.17877 48.7089 7.46204 49.2123 7.96545C49.7157 8.46887 49.999 9.15135 50 9.86328V40.1367C49.999 40.8487 49.7157 41.5311 49.2123 42.0345C48.7089 42.538 48.0264 42.8212 47.3145 42.8223ZM2.68555 8.64258C2.36195 8.64309 2.05176 8.77187 1.82295 9.00068C1.59414 9.2295 1.46536 9.53969 1.46484 9.86328V40.1367C1.46536 40.4603 1.59414 40.7705 1.82295 40.9993C2.05176 41.2281 2.36195 41.3569 2.68555 41.3574H47.3145C47.638 41.3569 47.9482 41.2281 48.1771 40.9993C48.4059 40.7705 48.5346 40.4603 48.5352 40.1367V9.86328C48.5346 9.53969 48.4059 9.2295 48.1771 9.00068C47.9482 8.77187 47.638 8.64309 47.3145 8.64258H2.68555Z" fill="#3D9AE2"/>
<path id="Vector_3" d="M40.625 11.3281H9.375C9.375 11.9693 9.2487 12.6043 9.00332 13.1967C8.75793 13.7891 8.39827 14.3274 7.94486 14.7808C7.49145 15.2342 6.95317 15.5939 6.36076 15.8393C5.76835 16.0846 5.13341 16.2109 4.49219 16.2109V33.7891C5.78719 33.7891 7.02915 34.3035 7.94486 35.2192C8.86056 36.1349 9.375 37.3769 9.375 38.6719H40.625C40.625 37.3769 41.1394 36.1349 42.0551 35.2192C42.9708 34.3035 44.2128 33.7891 45.5078 33.7891V16.2109C44.2128 16.2109 42.9708 15.6965 42.0551 14.7808C41.1394 13.8651 40.625 12.6231 40.625 11.3281Z" fill="white"/>
<path id="Vector_4" d="M40.625 39.4043H9.375C9.18075 39.4043 8.99446 39.3271 8.8571 39.1898C8.71974 39.0524 8.64258 38.8661 8.64258 38.6719C8.64129 37.5715 8.2036 36.5166 7.42553 35.7385C6.64746 34.9605 5.59254 34.5228 4.49219 34.5215C4.29794 34.5215 4.11164 34.4443 3.97429 34.307C3.83693 34.1696 3.75977 33.9833 3.75977 33.7891V16.2109C3.75977 16.0167 3.83693 15.8304 3.97429 15.693C4.11164 15.5557 4.29794 15.4785 4.49219 15.4785C5.59254 15.4772 6.64746 15.0395 7.42553 14.2615C8.2036 13.4834 8.64129 12.4285 8.64258 11.3281C8.64258 11.1339 8.71974 10.9476 8.8571 10.8102C8.99446 10.6729 9.18075 10.5957 9.375 10.5957H40.625C40.8193 10.5957 41.0055 10.6729 41.1429 10.8102C41.2803 10.9476 41.3574 11.1339 41.3574 11.3281C41.3587 12.4285 41.7964 13.4834 42.5745 14.2615C43.3525 15.0395 44.4075 15.4772 45.5078 15.4785C45.7021 15.4785 45.8884 15.5557 46.0257 15.693C46.1631 15.8304 46.2402 16.0167 46.2402 16.2109V33.7891C46.2402 33.9833 46.1631 34.1696 46.0257 34.307C45.8884 34.4443 45.7021 34.5215 45.5078 34.5215C44.4075 34.5228 43.3525 34.9605 42.5745 35.7385C41.7964 36.5166 41.3587 37.5715 41.3574 38.6719C41.3574 38.8661 41.2803 39.0524 41.1429 39.1898C41.0055 39.3271 40.8193 39.4043 40.625 39.4043ZM10.0586 37.9395H39.9414C40.1045 36.7147 40.6663 35.5777 41.54 34.704C42.4137 33.8304 43.5506 33.2686 44.7754 33.1055V16.8945C43.5506 16.7314 42.4137 16.1696 41.54 15.296C40.6663 14.4223 40.1045 13.2853 39.9414 12.0605H10.0586C9.89547 13.2853 9.3337 14.4223 8.46003 15.296C7.58635 16.1696 6.44936 16.7314 5.22461 16.8945V33.1055C6.44936 33.2686 7.58635 33.8304 8.46003 34.704C9.3337 35.5777 9.89547 36.7147 10.0586 37.9395Z" fill="#3D9AE2"/>
<path id="Vector_5" d="M27.9297 35.7422L25 34.2773L22.0703 35.7422V25.9766H27.9297V35.7422Z" fill="#BDDBFF"/>
<path id="Vector_6" d="M27.9297 36.4746C27.8161 36.4749 27.704 36.4484 27.6025 36.3975L25 35.0967L22.3975 36.3975C22.2858 36.4532 22.1617 36.4795 22.0371 36.4738C21.9124 36.4682 21.7912 36.4307 21.6851 36.3651C21.5789 36.2994 21.4913 36.2078 21.4306 36.0987C21.3698 35.9897 21.3379 35.867 21.3379 35.7422V25.9766C21.3379 25.7823 21.4151 25.596 21.5524 25.4587C21.6898 25.3213 21.8761 25.2441 22.0703 25.2441H27.9297C28.1239 25.2441 28.3102 25.3213 28.4476 25.4587C28.5849 25.596 28.6621 25.7823 28.6621 25.9766V35.7422C28.6621 35.9364 28.5849 36.1227 28.4476 36.2601C28.3102 36.3974 28.1239 36.4746 27.9297 36.4746ZM25 33.5449C25.1136 33.5447 25.2256 33.5711 25.3271 33.6221L27.1973 34.5566V26.709H22.8027V34.5566L24.6729 33.6221C24.7744 33.5711 24.8864 33.5447 25 33.5449Z" fill="#3D9AE2"/>
<path id="Vector_7" d="M25 30.8594C27.6967 30.8594 29.8828 28.6733 29.8828 25.9766C29.8828 23.2799 27.6967 21.0938 25 21.0938C22.3033 21.0938 20.1172 23.2799 20.1172 25.9766C20.1172 28.6733 22.3033 30.8594 25 30.8594Z" fill="#BDDBFF"/>
<path id="Vector_8" d="M25 31.5918C23.8894 31.5918 22.8038 31.2625 21.8803 30.6455C20.9569 30.0285 20.2372 29.1515 19.8122 28.1254C19.3872 27.0994 19.276 25.9703 19.4927 24.8811C19.7093 23.7918 20.2441 22.7913 21.0294 22.006C21.8147 21.2207 22.8153 20.6859 23.9045 20.4692C24.9938 20.2526 26.1228 20.3638 27.1489 20.7888C28.1749 21.2138 29.0519 21.9335 29.6689 22.8569C30.2859 23.7803 30.6152 24.866 30.6152 25.9766C30.6137 27.4653 30.0216 28.8927 28.9689 29.9454C27.9161 30.9981 26.4888 31.5902 25 31.5918ZM25 21.8262C24.1791 21.8262 23.3767 22.0696 22.6942 22.5256C22.0116 22.9817 21.4797 23.6299 21.1655 24.3883C20.8514 25.1467 20.7692 25.9812 20.9294 26.7863C21.0895 27.5914 21.4848 28.3309 22.0652 28.9113C22.6457 29.4918 23.3852 29.8871 24.1903 30.0472C24.9954 30.2074 25.8299 30.1252 26.5883 29.811C27.3467 29.4969 27.9949 28.9649 28.4509 28.2824C28.907 27.5999 29.1504 26.7974 29.1504 25.9766C29.1491 24.8762 28.7114 23.8213 27.9333 23.0432C27.1553 22.2652 26.1004 21.8275 25 21.8262Z" fill="#3D9AE2"/>
<path id="Vector_9" d="M36.2305 17.6758H13.7695C13.381 17.6758 13.0084 17.5214 12.7337 17.2467C12.459 16.972 12.3047 16.5994 12.3047 16.2109C12.3047 15.8224 12.459 15.4498 12.7337 15.1751C13.0084 14.9004 13.381 14.7461 13.7695 14.7461H36.2305C36.619 14.7461 36.9916 14.9004 37.2663 15.1751C37.541 15.4498 37.6953 15.8224 37.6953 16.2109C37.6953 16.5994 37.541 16.972 37.2663 17.2467C36.9916 17.5214 36.619 17.6758 36.2305 17.6758Z" fill="#BDDBFF"/>
<path id="Vector_10" d="M36.2305 18.4082H13.7695C13.1868 18.4082 12.6279 18.1767 12.2158 17.7646C11.8038 17.3526 11.5723 16.7937 11.5723 16.2109C11.5723 15.6282 11.8038 15.0693 12.2158 14.6572C12.6279 14.2452 13.1868 14.0137 13.7695 14.0137H36.2305C36.8132 14.0137 37.3721 14.2452 37.7842 14.6572C38.1962 15.0693 38.4277 15.6282 38.4277 16.2109C38.4277 16.7937 38.1962 17.3526 37.7842 17.7646C37.3721 18.1767 36.8132 18.4082 36.2305 18.4082ZM13.7695 15.4785C13.5753 15.4785 13.389 15.5557 13.2516 15.693C13.1143 15.8304 13.0371 16.0167 13.0371 16.2109C13.0371 16.4052 13.1143 16.5915 13.2516 16.7288C13.389 16.8662 13.5753 16.9434 13.7695 16.9434H36.2305C36.4247 16.9434 36.611 16.8662 36.7484 16.7288C36.8857 16.5915 36.9629 16.4052 36.9629 16.2109C36.9629 16.0167 36.8857 15.8304 36.7484 15.693C36.611 15.5557 36.4247 15.4785 36.2305 15.4785H13.7695Z" fill="#3D9AE2"/>
</g>
</svg>
