<svg width="15" height="15" viewBox="0 0 15 15" fill="none" xmlns="http://www.w3.org/2000/svg">
<g id="cup" clip-path="url(#clip0_58_28)">
<g id="Layer 6">
<path id="Vector" d="M1.6172 3.61392H3.69845C3.64187 3.24789 3.61366 2.87804 3.61407 2.50767V2.37173L3.95157 2.17485H0.792197C0.785285 2.61663 0.953858 3.04312 1.26095 3.36079C1.36773 3.46085 1.48757 3.546 1.6172 3.61392ZM4.35938 5.76079H2.71407C2.38646 5.76592 2.06323 5.68511 1.77657 5.52642H1.03595C1.03595 5.74679 1.07935 5.96501 1.16369 6.16861C1.24802 6.37221 1.37163 6.5572 1.52746 6.71303C1.84217 7.02774 2.26901 7.20454 2.71407 7.20454H5.26407C4.9041 6.76246 4.60023 6.27752 4.35938 5.76079ZM11.3859 2.50767C11.3864 2.87804 11.3581 3.24789 11.3016 3.61392H13.3828C13.5045 3.5428 13.6164 3.45613 13.7156 3.3561C14.0227 3.03843 14.1913 2.61195 14.1844 2.17017H11.0484L11.3859 2.36704V2.50767ZM3.9797 3.84829C3.9797 3.84829 3.9797 3.87642 3.9797 3.89048C3.98197 3.87651 3.98197 3.86226 3.9797 3.84829ZM4.4672 5.43267C4.47767 5.46469 4.49019 5.49601 4.5047 5.52642L4.53282 5.58735V5.52642L4.4672 5.43267ZM1.03595 3.84829C1.03595 4.29336 1.21275 4.7202 1.52746 5.0349C1.84217 5.34961 2.26901 5.52642 2.71407 5.52642H4.25157C4.0143 4.99042 3.84578 4.42657 3.75001 3.84829H1.03595ZM10.7484 5.52642H12.2859C12.731 5.52642 13.1579 5.34961 13.4726 5.0349C13.7873 4.7202 13.9641 4.29336 13.9641 3.84829H11.25C11.1542 4.42657 10.9857 4.99042 10.7484 5.52642ZM12.2859 5.76079H10.6406C10.3998 6.27752 10.0959 6.76246 9.73595 7.20454H12.2859C12.731 7.20454 13.1579 7.02774 13.4726 6.71303C13.7873 6.39832 13.9641 5.97148 13.9641 5.52642H13.2C12.9203 5.68119 12.6056 5.76187 12.2859 5.76079Z" fill="black"/>
<path id="Vector_2" d="M4.53276 5.58746V5.6109C4.99621 6.59752 5.67544 7.46739 6.52026 8.15621C6.67041 8.27986 6.82687 8.39564 6.98901 8.50309C7.14839 8.6109 7.31245 8.71871 7.45776 8.81715C7.62651 8.71871 7.79058 8.6109 7.92651 8.50309C8.08866 8.39564 8.24512 8.27986 8.39526 8.15621C9.08238 7.59975 9.66083 6.92119 10.1015 6.15465C10.2046 5.97652 10.2984 5.78902 10.3875 5.60152L10.4156 5.54059V5.50309C10.5574 5.187 10.6765 4.86117 10.7718 4.52809V4.4859C10.8281 4.28902 10.8703 4.09215 10.9078 3.89059C10.9909 3.45011 11.0333 3.0029 11.0343 2.55465L7.9687 0.6609C7.83078 0.580157 7.67384 0.537598 7.51401 0.537598C7.35419 0.537598 7.19725 0.580157 7.05933 0.6609L3.84839 2.50777C3.84881 3.572 4.08241 4.62322 4.53276 5.58746Z" fill="black"/>
<path id="Vector_3" d="M7.61714 9.0374L7.49995 9.10772L7.38276 9.0374C7.08762 8.86747 6.80417 8.67799 6.53433 8.47021V10.0358H8.46558V8.47021C8.19573 8.67799 7.91228 8.86747 7.61714 9.0374ZM10.6031 12.553H4.39683C4.20867 12.553 4.02815 12.6274 3.89466 12.7601C3.76118 12.8927 3.68556 13.0727 3.68433 13.2608V14.1983C3.68432 14.2344 3.69151 14.2702 3.70546 14.3035C3.71942 14.3368 3.73986 14.367 3.76561 14.3923C3.79135 14.4176 3.82188 14.4375 3.85541 14.4509C3.88893 14.4643 3.92479 14.4708 3.96089 14.4702H11.039C11.0751 14.4708 11.111 14.4643 11.1445 14.4509C11.178 14.4375 11.2086 14.4176 11.2343 14.3923C11.26 14.367 11.2805 14.3368 11.2944 14.3035C11.3084 14.2702 11.3156 14.2344 11.3156 14.1983V13.2608C11.3143 13.0727 11.2387 12.8927 11.1052 12.7601C10.9718 12.6274 10.7912 12.553 10.6031 12.553ZM5.58276 11.2499C5.48942 11.2499 5.39699 11.2684 5.31081 11.3042C5.22463 11.3401 5.14639 11.3926 5.0806 11.4589C5.01481 11.5251 4.96277 11.6037 4.92748 11.6901C4.89218 11.7765 4.87433 11.8691 4.87495 11.9624V12.2952C4.87268 12.3092 4.87268 12.3234 4.87495 12.3374H10.1203C10.1225 12.3234 10.1225 12.3092 10.1203 12.2952V11.9624C10.1209 11.8695 10.1032 11.7773 10.0682 11.6912C10.0332 11.6051 9.98156 11.5267 9.91627 11.4605C9.85098 11.3944 9.77329 11.3417 9.68765 11.3056C9.60201 11.2694 9.51009 11.2505 9.41714 11.2499H5.58276ZM5.73745 10.8749V10.9546C5.73518 10.9686 5.73518 10.9828 5.73745 10.9968H9.25308C9.25535 10.9828 9.25535 10.9686 9.25308 10.9546V10.8749C9.25308 10.6872 9.1785 10.5071 9.04576 10.3744C8.91302 10.2417 8.73299 10.1671 8.54526 10.1671H6.43589C6.24979 10.1696 6.07216 10.2452 5.94144 10.3777C5.81072 10.5102 5.73743 10.6888 5.73745 10.8749Z" fill="black"/>
</g>
</g>
<defs>
<clipPath id="clip0_58_28">
<rect width="15" height="15" fill="white"/>
</clipPath>
</defs>
</svg>
