<svg width="50" height="50" viewBox="0 0 50 50" fill="none" xmlns="http://www.w3.org/2000/svg">
<g id="practical icon">
<path id="Vector" d="M30.8585 32.1415C28.9977 32.1434 27.1496 31.8352 25.3902 31.2293C25.2724 31.1838 25.1768 31.0945 25.1235 30.98C25.0702 30.8656 25.0633 30.7349 25.1044 30.6155C25.1455 30.4961 25.2312 30.3972 25.3437 30.3398C25.4561 30.2823 25.5864 30.2707 25.7073 30.3073C29.0929 31.4677 32.7711 31.4514 36.1463 30.261C36.2067 30.2395 36.2707 30.2301 36.3347 30.2334C36.3987 30.2367 36.4614 30.2526 36.5193 30.2801C36.5771 30.3076 36.629 30.3462 36.6719 30.3938C36.7149 30.4414 36.748 30.4969 36.7695 30.5573C36.7909 30.6177 36.8003 30.6817 36.797 30.7457C36.7937 30.8097 36.7779 30.8724 36.7504 30.9303C36.7228 30.9881 36.6842 31.04 36.6366 31.0829C36.5891 31.1259 36.5335 31.159 36.4731 31.1805C34.67 31.8183 32.7711 32.1433 30.8585 32.1415Z" fill="#4D4C78"/>
<path id="Vector_2" d="M19.3268 45.8902L18.8707 42.9414L21.9537 43.7658L20.0829 46.0926C19.8512 46.3829 19.3854 46.2585 19.3268 45.8902Z" fill="#4D4C78"/>
<path id="Vector_3" d="M20.6024 43.4049L19.2122 45.1366L19.3268 45.8903C19.3853 46.2586 19.8512 46.383 20.0829 46.0927L21.9536 43.7659L20.6024 43.4049Z" fill="#323150"/>
<path id="Vector_4" d="M21.5366 32.9927L21.2854 33.9366L24.3659 34.761L24.6195 33.8195L21.5366 32.9927Z" fill="#4D4C78"/>
<path id="Vector_5" d="M40.7439 35.4268C40.6258 35.4265 40.5118 35.3834 40.4231 35.3055C40.3344 35.2276 40.2769 35.1201 40.2614 35.003C40.2459 34.8859 40.2734 34.7672 40.3388 34.6688C40.4043 34.5705 40.5031 34.4992 40.6171 34.4683L42.5659 33.9463C42.689 33.9176 42.8186 33.9379 42.9271 34.0028C43.0356 34.0678 43.1147 34.1724 43.1476 34.2945C43.1805 34.4166 43.1646 34.5467 43.1034 34.6574C43.0422 34.7681 42.9404 34.8507 42.8195 34.8878L40.8707 35.4097C40.8295 35.4212 40.7868 35.427 40.7439 35.4268Z" fill="#231F20"/>
<path id="Vector_6" d="M32.4 16.1293L39.6951 43.3536L40.239 45.378C40.3756 45.8902 41.0732 45.9585 41.3098 45.4854L42.7781 42.5293L35.483 15.3024L32.4 16.1293Z" fill="#67BAEB"/>
<path id="Vector_7" d="M43.9833 31.7665L42.4897 32.1667C42.2841 32.2218 42.1621 32.4331 42.2172 32.6387L43.1699 36.1945C43.225 36.4001 43.4363 36.5221 43.6419 36.467L45.1356 36.0668C45.3411 36.0117 45.4631 35.8004 45.4081 35.5948L44.4553 32.039C44.4002 31.8334 44.1889 31.7114 43.9833 31.7665Z" fill="#4D4C78"/>
<path id="Vector_8" d="M33.1708 6.22683V4.60975C33.1701 4.38096 33.079 4.16172 32.9172 3.99994C32.7554 3.83815 32.5362 3.74698 32.3074 3.74634H29.4122C29.183 3.74634 28.9632 3.83723 28.8008 3.99908C28.6385 4.16093 28.547 4.38054 28.5464 4.60975V6.22683C30.0467 5.72284 31.6705 5.72284 33.1708 6.22683Z" fill="#323150"/>
<path id="Vector_9" d="M25.5854 17.8854L18.8707 42.9415L21.9537 43.7659L28.3854 19.761C27.4077 19.4017 26.5204 18.8331 25.7854 18.0951C25.7171 18.0268 25.6512 17.9561 25.5854 17.8854Z" fill="#F4C23F"/>
<path id="Vector_10" d="M27.1342 19.1561L20.5317 43.3854L21.9537 43.7659L28.3854 19.761C27.9492 19.6017 27.53 19.399 27.1342 19.1561Z" fill="#F4A93F"/>
<path id="Vector_11" d="M36.1659 17.8512C36.0902 17.9341 36.0122 18.017 35.9317 18.0951C35.2069 18.8235 34.3333 19.3868 33.3707 19.7463L39.6951 43.3536L40.239 45.378C40.3756 45.8902 41.0732 45.9585 41.3098 45.4853L42.778 42.5292L36.1659 17.8512Z" fill="#C8C2E9"/>
<path id="Vector_12" d="M41.1951 44.4195L40.6537 42.3976L34.4463 19.239C34.1021 19.437 33.7424 19.6066 33.3707 19.7463L39.6951 43.3536L40.239 45.378C40.3756 45.8902 41.0732 45.9585 41.3098 45.4854L41.6317 44.8341C41.527 44.8137 41.4304 44.7638 41.3531 44.6904C41.2757 44.6169 41.221 44.523 41.1951 44.4195Z" fill="#8A87B2"/>
<path id="Vector_13" d="M29.4122 8.36827H32.3074C32.5364 8.36827 32.756 8.2773 32.9179 8.11538C33.0798 7.95346 33.1708 7.73384 33.1708 7.50485V6.2268C31.6705 5.72282 30.0467 5.72282 28.5464 6.2268V7.50485C28.5464 7.61844 28.5688 7.73092 28.6123 7.83583C28.6559 7.94075 28.7197 8.03604 28.8001 8.11624C28.8806 8.19645 28.976 8.26 29.0811 8.30324C29.1861 8.34649 29.2987 8.36859 29.4122 8.36827Z" fill="#212136"/>
<path id="Vector_14" d="M26.1658 15.7147L25.5853 17.8854C25.6512 17.9561 25.717 18.0269 25.7853 18.0951C26.5203 18.8332 27.4077 19.4017 28.3853 19.761L29.2487 16.5415L26.1658 15.7147Z" fill="#F4A93F"/>
<path id="Vector_15" d="M36.1659 17.8512L35.483 15.3024L32.4 16.1293L33.3708 19.7463C34.3334 19.3868 35.207 18.8235 35.9317 18.0951C36.0122 18.0171 36.0903 17.9341 36.1659 17.8512Z" fill="#8A87B2"/>
<path id="Vector_16" d="M30.8585 19.1244C34.2288 19.1244 36.961 16.3922 36.961 13.0219C36.961 9.65165 34.2288 6.91949 30.8585 6.91949C27.4883 6.91949 24.7561 9.65165 24.7561 13.0219C24.7561 16.3922 27.4883 19.1244 30.8585 19.1244Z" fill="#4D4C78"/>
<path id="Vector_17" d="M29.6098 7.75365C33.2854 7.75365 36.2634 10.7317 36.2634 14.4049C36.2636 15.0644 36.1657 15.7204 35.9732 16.3512C36.6194 15.3612 36.9627 14.2042 36.961 13.0219C36.961 9.65365 34.2293 6.92194 30.8586 6.92194C29.4661 6.91971 28.1151 7.39588 27.0317 8.27072C27.8479 7.92771 28.7245 7.75188 29.6098 7.75365Z" fill="#64639C"/>
<path id="Vector_18" d="M31.6488 18.1634C28.2805 18.1634 25.5488 15.4317 25.5488 12.061C25.5475 10.8609 25.9014 9.68719 26.5659 8.68781C25.9918 9.25407 25.5361 9.92891 25.2254 10.673C24.9147 11.4171 24.7552 12.2156 24.7561 13.022C24.7561 16.3927 27.4903 19.1244 30.8585 19.1244C31.8651 19.1251 32.8562 18.8764 33.7431 18.4006C34.6301 17.9248 35.3854 17.2366 35.9415 16.3976C34.8001 17.5302 33.2568 18.1651 31.6488 18.1634Z" fill="#323150"/>
<path id="Vector_19" d="M30.8586 14.8561C31.8715 14.8561 32.6927 14.0349 32.6927 13.022C32.6927 12.009 31.8715 11.1878 30.8586 11.1878C29.8456 11.1878 29.0244 12.009 29.0244 13.022C29.0244 14.0349 29.8456 14.8561 30.8586 14.8561Z" fill="#323150"/>
<path id="Vector_20" d="M16.2 6H7.3634V45.7085H16.2V6Z" fill="#67BAEB"/>
<path id="Vector_21" d="M8.62438 37.2902V6H7.3634V45.7098H16.2V44.8634C12.0171 44.8634 8.62438 41.4732 8.62438 37.2902Z" fill="#46A1F8"/>
<path id="Vector_22" d="M9.30487 9.25124C9.45264 9.24167 9.59122 9.17622 9.69249 9.06818C9.79375 8.96014 9.85011 8.81762 9.85011 8.66954C9.85011 8.52146 9.79375 8.37893 9.69249 8.27089C9.59122 8.16285 9.45264 8.0974 9.30487 8.08783H7.3634V9.25124H9.30487Z" fill="#4D4C78"/>
<path id="Vector_23" d="M8.4317 13.5464C8.58565 13.5464 8.7333 13.4852 8.84216 13.3763C8.95103 13.2675 9.01218 13.1198 9.01218 12.9659C9.01218 12.8119 8.95103 12.6643 8.84216 12.5554C8.7333 12.4465 8.58565 12.3854 8.4317 12.3854H7.3634V13.5464H8.4317Z" fill="#4D4C78"/>
<path id="Vector_24" d="M8.4317 17.8439C8.57946 17.8343 8.71805 17.7689 8.81932 17.6608C8.92058 17.5528 8.97694 17.4103 8.97694 17.2622C8.97694 17.1141 8.92058 16.9716 8.81932 16.8635C8.71805 16.7555 8.57946 16.6901 8.4317 16.6805H7.3634V17.8439H8.4317Z" fill="#4D4C78"/>
<path id="Vector_25" d="M8.4317 22.139C8.58565 22.139 8.7333 22.0778 8.84216 21.969C8.95103 21.8601 9.01218 21.7125 9.01218 21.5585C9.01218 21.4046 8.95103 21.2569 8.84216 21.148C8.7333 21.0392 8.58565 20.978 8.4317 20.978H7.3634V22.139H8.4317Z" fill="#4D4C78"/>
<path id="Vector_26" d="M9.30487 26.4366C9.45264 26.427 9.59122 26.3616 9.69249 26.2535C9.79375 26.1455 9.85011 26.003 9.85011 25.8549C9.85011 25.7068 9.79375 25.5643 9.69249 25.4563C9.59122 25.3482 9.45264 25.2828 9.30487 25.2732H7.3634V26.4366H9.30487Z" fill="#4D4C78"/>
<path id="Vector_27" d="M8.4317 30.7317C8.58565 30.7317 8.7333 30.6705 8.84216 30.5616C8.95103 30.4528 9.01218 30.3051 9.01218 30.1512C9.01218 29.9972 8.95103 29.8496 8.84216 29.7407C8.7333 29.6318 8.58565 29.5707 8.4317 29.5707H7.3634V30.7317H8.4317Z" fill="#4D4C78"/>
<path id="Vector_28" d="M8.4317 35.0293C8.57946 35.0197 8.71805 34.9542 8.81932 34.8462C8.92058 34.7382 8.97694 34.5956 8.97694 34.4476C8.97694 34.2995 8.92058 34.1569 8.81932 34.0489C8.71805 33.9409 8.57946 33.8754 8.4317 33.8658H7.3634V35.0293H8.4317Z" fill="#4D4C78"/>
<path id="Vector_29" d="M8.4317 39.3244C8.57946 39.3149 8.71805 39.2494 8.81932 39.1414C8.92058 39.0333 8.97694 38.8908 8.97694 38.7427C8.97694 38.5946 8.92058 38.4521 8.81932 38.3441C8.71805 38.236 8.57946 38.1706 8.4317 38.161H7.3634V39.3244H8.4317Z" fill="#4D4C78"/>
<path id="Vector_30" d="M9.30487 43.6195C9.45882 43.6195 9.60647 43.5583 9.71533 43.4495C9.8242 43.3406 9.88535 43.1929 9.88535 43.039C9.88535 42.885 9.8242 42.7374 9.71533 42.6285C9.60647 42.5197 9.45882 42.4585 9.30487 42.4585H7.3634V43.6195H9.30487Z" fill="#4D4C78"/>
<path id="Vector_31" d="M14.6829 6H13.522V45.7098H14.6829V6Z" fill="#4D4C78"/>
<path id="Vector_32" d="M13.522 10.1902C13.522 9.87908 13.2703 9.62683 12.9598 9.62683C12.6493 9.62683 12.3976 9.87908 12.3976 10.1902V27.4405C12.3976 27.7517 12.6493 28.0039 12.9598 28.0039C13.2703 28.0039 13.522 27.7517 13.522 27.4405V10.1902Z" fill="#83D0FB"/>
<path id="Vector_33" d="M16.1999 26.1731C16.1999 25.9967 16.0574 25.8536 15.8816 25.8536C15.7059 25.8536 15.5634 25.9967 15.5634 26.1731V38.4227C15.5634 38.5991 15.7059 38.7422 15.8816 38.7422C16.0574 38.7422 16.1999 38.5991 16.1999 38.4227V26.1731Z" fill="#83D0FB"/>
<path id="Vector_34" d="M37.5805 23.0681C37.5237 22.856 37.3057 22.7302 37.0936 22.787C36.8815 22.8438 36.7557 23.0618 36.8125 23.2739L39.0008 31.4409C39.0577 31.653 39.2757 31.7789 39.4877 31.722C39.6998 31.6652 39.8257 31.4472 39.7689 31.2351L37.5805 23.0681Z" fill="#DFDAFD"/>
<path id="Vector_35" d="M21.417 35.3829C21.1682 35.317 21.0195 35.0609 21.0975 34.7707L23.6926 25.017C23.7487 24.8073 24.0048 24.6585 24.256 24.7268C24.3755 24.7589 24.4774 24.8369 24.5396 24.9438C24.6017 25.0507 24.619 25.1779 24.5877 25.2975L21.9902 35.0512C21.9746 35.1108 21.9474 35.1667 21.9101 35.2157C21.8728 35.2647 21.8261 35.3058 21.7728 35.3366C21.7195 35.3675 21.6606 35.3874 21.5995 35.3954C21.5385 35.4033 21.4764 35.3991 21.417 35.3829Z" fill="#FAD564"/>
</g>
</svg>
